<svg width="1109" height="1116" viewBox="0 0 1109 1116" fill="none" xmlns="http://www.w3.org/2000/svg">
<style type="text/css">
  .rotate-center {
    transform-origin: center;
    transform-box:fill-box;
    -webkit-animation: rotate-center 4s linear infinite both;
            animation: rotate-center 4s linear infinite both;
  }
  @-webkit-keyframes rotate-center {
    0% {
      -webkit-transform: rotate(0);
              transform: rotate(0);
    }
    100% {
      -webkit-transform: rotate(360deg);
              transform: rotate(360deg);
    }
  }
  @keyframes rotate-center {
    0% {
      -webkit-transform: rotate(0);
              transform: rotate(0);
    }
    100% {
      -webkit-transform: rotate(360deg);
              transform: rotate(360deg);
    }
  }
</style>
  <g clip-path="url(#clip0_1_45)">
    <g style="mix-blend-mode:multiply" opacity="0.1">
      <path fill-rule="evenodd" clip-rule="evenodd" d="M71.618 68.848C136.355 5.13573 248.606 -1.68066 381.135 43.6741C434.907 62.0759 491.515 88.9296 548.813 123.533C468.336 171.964 386.77 235 309.731 310.819C232.704 386.627 168.381 467.164 118.675 546.847C84.9926 489.007 59.0475 431.98 41.5071 377.924C-1.72653 244.688 6.88061 132.56 71.618 68.848ZM113.033 555.99C-6.57069 352.788 -32.4067 157.914 64.9629 62.0858C162.334 -33.7434 356.776 -4.798 558.045 118.038C761.234 -1.54797 956.092 -27.3755 1051.91 69.9886C1147.74 167.354 1118.8 361.779 995.983 563.036C1115.57 766.228 1141.4 961.091 1044.04 1056.91C946.673 1152.74 752.252 1123.8 550.998 1000.99C347.794 1120.6 152.915 1146.43 57.0858 1049.06C-38.742 951.694 -9.79881 757.256 113.033 555.99ZM541.855 995.347C484.012 1029.03 426.982 1054.98 372.924 1072.52C239.688 1115.75 127.56 1107.15 63.848 1042.41C0.135718 977.671 -6.68067 865.42 38.6741 732.891C57.075 679.122 83.927 622.517 118.528 565.221C166.956 645.687 229.985 727.241 305.793 804.269C381.612 881.307 462.161 945.637 541.855 995.347ZM551.086 989.909C470.74 940.297 389.263 875.556 312.555 797.614C235.858 719.683 172.433 637.195 124.112 556.078C173.721 475.743 238.455 394.278 316.386 317.581C394.328 240.873 476.828 177.44 557.956 129.117C638.289 178.726 719.751 243.458 796.445 321.386C873.15 399.326 936.581 481.823 984.904 562.948C935.293 643.292 870.553 724.766 792.614 801.471C714.685 878.165 632.201 941.589 551.086 989.909ZM560.23 995.493C617.514 1030.08 674.107 1056.93 727.865 1075.33C860.394 1120.68 972.645 1113.86 1037.38 1050.15C1102.12 986.44 1110.73 874.312 1067.49 741.076C1049.96 687.029 1024.02 630.011 990.341 572.18C940.632 651.871 876.304 732.417 799.269 808.233C722.244 884.038 640.693 947.065 560.23 995.493ZM990.488 553.804C1025.08 496.518 1051.93 439.922 1070.33 386.161C1115.68 253.632 1108.86 141.381 1045.15 76.6437C981.44 11.9063 869.312 3.29913 736.076 46.5328C682.031 64.0697 625.016 90.0079 567.188 123.68C646.868 173.386 727.402 237.707 803.207 314.731C879.023 391.767 942.057 473.33 990.488 553.804ZM554.511 288.097C558.624 437.047 678.404 556.826 827.354 560.939C678.404 565.052 558.624 684.832 554.511 833.782C550.398 684.832 430.619 565.052 281.669 560.939C430.619 556.826 550.398 437.047 554.511 288.097Z" fill="#0F1014"/>
    </g>

      <g class="rotate-center">
        <path d="M935.872 184.902C920.67 190.045 904.392 191.142 888.639 188.087C872.885 185.031 858.197 177.928 846.02 167.476C833.843 157.024 824.596 143.583 819.188 128.474C813.78 113.366 812.398 97.1094 815.176 81.3043L816.094 81.4656C813.343 97.1115 814.712 113.204 820.065 128.16C825.419 143.117 834.573 156.423 846.627 166.769C858.681 177.116 873.221 184.147 888.816 187.172C904.411 190.197 920.525 189.11 935.573 184.02L935.872 184.902Z" fill="white"/>
        <path d="M876.787 9.6675C892.082 4.52741 908.456 3.47917 924.281 6.62696C940.106 9.77475 954.832 17.009 966.996 27.6107C979.16 38.2125 988.337 51.8127 993.617 67.0599C998.896 82.3071 1000.09 98.6704 997.091 114.524L996.175 114.35C999.148 98.6568 997.963 82.4583 992.736 67.3647C987.51 52.2712 978.425 38.808 966.384 28.313C954.343 17.8181 939.765 10.6567 924.099 7.54068C908.433 4.42461 892.225 5.46228 877.084 10.5506L876.787 9.6675Z" fill="white"/>
        <path d="M851.74 18.7959C856.673 17.6696 860.552 13.7906 861.679 8.85702C862.805 13.7906 866.684 17.6696 871.618 18.7959C866.684 19.9222 862.805 23.8012 861.679 28.7348C860.552 23.8012 856.673 19.9222 851.74 18.7959Z" stroke="white"/>
        <path d="M989.018 121.711C991.867 125.894 996.893 128.091 1001.9 127.34C997.715 130.188 995.518 135.215 996.269 140.219C993.421 136.036 988.394 133.84 983.39 134.59C987.573 131.742 989.769 126.715 989.018 121.711Z" stroke="white"/>
        <path d="M962.087 175.183C957.174 176.395 953.363 180.341 952.323 185.293C951.111 180.38 947.165 176.569 942.212 175.528C947.126 174.316 950.937 170.371 951.977 165.418C953.189 170.331 957.135 174.142 962.087 175.183Z" stroke="white"/>
        <path d="M819.666 52.2913C821.335 57.0687 825.622 60.4913 830.65 61.0608C825.873 62.7298 822.45 67.017 821.881 72.0453C820.212 67.268 815.925 63.8453 810.896 63.2758C815.674 61.6068 819.096 57.3197 819.666 52.2913Z" stroke="white"/>
      </g>

      <g class="rotate-center">
        <path d="M265.872 1105.9C250.67 1111.04 234.392 1112.14 218.639 1109.09C202.885 1106.03 188.197 1098.93 176.02 1088.48C163.843 1078.02 154.596 1064.58 149.188 1049.47C143.78 1034.37 142.398 1018.11 145.176 1002.3L146.094 1002.47C143.343 1018.11 144.712 1034.2 150.065 1049.16C155.419 1064.12 164.573 1077.42 176.627 1087.77C188.681 1098.12 203.221 1105.15 218.816 1108.17C234.411 1111.2 250.525 1110.11 265.573 1105.02L265.872 1105.9Z" fill="white"/>
        <path d="M206.787 930.668C222.082 925.527 238.456 924.479 254.281 927.627C270.106 930.775 284.832 938.009 296.996 948.611C309.16 959.213 318.337 972.813 323.617 988.06C328.896 1003.31 330.094 1019.67 327.091 1035.52L326.175 1035.35C329.148 1019.66 327.963 1003.46 322.736 988.365C317.51 973.271 308.425 959.808 296.384 949.313C284.343 938.818 269.765 931.657 254.099 928.541C238.433 925.425 222.225 926.462 207.084 931.551L206.787 930.668Z" fill="white"/>
        <path d="M181.74 939.796C186.673 938.67 190.552 934.791 191.679 929.857C192.805 934.791 196.684 938.67 201.618 939.796C196.684 940.922 192.805 944.801 191.679 949.735C190.552 944.801 186.673 940.922 181.74 939.796Z" stroke="white"/>
        <path d="M319.018 1042.71C321.867 1046.89 326.893 1049.09 331.898 1048.34C327.715 1051.19 325.518 1056.21 326.269 1061.22C323.421 1057.04 318.394 1054.84 313.39 1055.59C317.573 1052.74 319.769 1047.72 319.018 1042.71Z" stroke="white"/>
        <path d="M292.087 1096.18C287.174 1097.39 283.363 1101.34 282.323 1106.29C281.111 1101.38 277.165 1097.57 272.213 1096.53C277.126 1095.32 280.937 1091.37 281.977 1086.42C283.189 1091.33 287.135 1095.14 292.087 1096.18Z" stroke="white"/>
        <path d="M149.666 973.291C151.335 978.069 155.622 981.491 160.65 982.061C155.873 983.73 152.45 988.017 151.881 993.045C150.212 988.268 145.925 984.845 140.896 984.276C145.674 982.607 149.096 978.32 149.666 973.291Z" stroke="white"/>
      </g>
  </g>
  <defs>
    <clipPath  id="clip0_1_45">
      <rect width="1109" height="1115.48" fill="white"/>
    </clipPath>
  </defs>
</svg>
