<svg width="28" height="32" viewBox="0 0 28 32" fill="none" xmlns="http://www.w3.org/2000/svg">
<path d="M22.0701 5.2103C20.8709 3.84125 20.21 2.08307 20.2105 0.263062H14.7896V22.0169C14.7478 23.1941 14.2508 24.3091 13.4032 25.1272C12.5557 25.9453 11.4238 26.4026 10.2458 26.4027C7.75467 26.4027 5.68455 24.3677 5.68455 21.8414C5.68455 18.824 8.59675 16.5609 11.5967 17.4907V11.947C5.5442 11.14 0.246094 15.8416 0.246094 21.8414C0.246094 27.6834 5.08807 31.8412 10.2283 31.8412C15.7369 31.8412 20.2105 27.3676 20.2105 21.8414V10.8066C22.4087 12.3853 25.0478 13.2323 27.7542 13.2276V7.80673C27.7542 7.80673 24.456 7.96462 22.0701 5.2103Z" fill="#A9A9A9"/>
</svg>
