<svg width="34" height="29" viewBox="0 0 34 29" fill="none" xmlns="http://www.w3.org/2000/svg">
<path d="M33.9992 4.10936C32.7633 4.67112 31.4311 5.04028 30.0508 5.21684C31.4632 4.36617 32.5547 3.01794 33.0683 1.39685C31.7361 2.19937 30.2595 2.76113 28.7026 3.08214C27.4346 1.70181 25.653 0.899292 23.6307 0.899292C19.8588 0.899292 16.7772 3.98096 16.7772 7.78489C16.7772 8.3306 16.8414 8.86026 16.9537 9.35783C11.2398 9.06892 6.15185 6.32431 2.76523 2.16727C2.17136 3.17844 1.83431 4.36617 1.83431 5.61809C1.83431 8.0096 3.03808 10.1282 4.89992 11.332C3.76035 11.332 2.70102 11.011 1.7701 10.5295V10.5777C1.7701 13.9161 4.14556 16.7089 7.29142 17.3348C6.28142 17.6112 5.22108 17.6497 4.19371 17.4472C4.62964 18.8155 5.48341 20.0127 6.63499 20.8706C7.78657 21.7286 9.17806 22.204 10.6138 22.2302C8.18002 24.1569 5.16314 25.1984 2.05901 25.1835C1.5133 25.1835 0.967587 25.1514 0.421875 25.0872C3.47144 27.0453 7.09882 28.1849 10.983 28.1849C23.6307 28.1849 30.5805 17.688 30.5805 8.58741C30.5805 8.28245 30.5805 7.99354 30.5644 7.68859C31.9127 6.72557 33.0683 5.50574 33.9992 4.10936Z" fill="#A9A9A9"/>
</svg>
